<svg version="1.1" id="Layer_1" xmlns="http://www.w3.org/2000/svg" xmlns:xlink="http://www.w3.org/1999/xlink" x="0px" y="0px"
	 viewBox="0 0 128 128" style="enable-background:new 0 0 128 128;" xml:space="preserve">
<style type="text/css">
	.st0{fill-rule:evenodd;clip-rule:evenodd;fill:#dd6b20;}
	.st1{fill:#dd6b20;}
</style>
<g>
	<path class="st0" d="M64,5.103287c-33.3466,0-60.387699,27.035202-60.387699,60.387703
		c0,26.680695,17.302811,49.316399,41.296898,57.301796c3.017601,0.558601,4.126003-1.310501,4.126003-2.905296
		c0-1.4394-0.055702-6.197205-0.082001-11.243103c-16.799801,3.653297-20.344801-7.125-20.344801-7.125
		c-2.747-6.9795-6.705-8.835999-6.705-8.835999c-5.4795-3.748001,0.413-3.670898,0.413-3.670898
		c6.063499,0.425797,9.256901,6.223701,9.256901,6.223701c5.385698,9.2314,14.126898,6.5625,17.573198,5.019493
		c0.542-3.902397,2.106503-6.567398,3.834-8.075195c-13.413097-1.526398-27.513699-6.705101-27.513699-29.8438
		c0-6.592701,2.3594-11.9799,6.2227-16.2089c-0.627001-1.5215-2.6943-7.663101,0.585001-15.981501
		c0,0,5.071198-1.622101,16.610298,6.190901c4.817402-1.338303,9.983398-2.009201,15.1152-2.0327
		c5.131897,0.023499,10.301796,0.694397,15.127998,2.0327c11.526299-7.813002,16.589798-6.190901,16.589798-6.190901
		c3.287102,8.318399,1.219704,14.460001,0.592804,15.981501c3.872101,4.229,6.214798,9.616199,6.214798,16.2089
		c0,23.194401-14.1269,28.3008-27.574196,29.795895c2.166,1.874107,4.095695,5.548904,4.095695,11.182701
		c0,8.080002-0.069298,14.583-0.069298,16.572205c0,1.607399,1.086899,3.490295,4.1474,2.897499
		c23.981499-7.994202,41.262695-30.622101,41.262695-57.293999C124.387695,32.138489,97.350601,5.103287,64,5.103287z"/>
	<path class="st1" d="M26.484402,91.806488c-0.132801,0.300797-0.605501,0.390602-1.035101,0.184502
		c-0.438499-0.197205-0.683599-0.6064-0.542-0.907204c0.12981-0.308601,0.602501-0.394501,1.040001-0.188499
		C26.385801,91.09259,26.635801,91.505684,26.484402,91.806488L26.484402,91.806488z M25.741201,91.255684"/>
	<path class="st1" d="M28.9307,94.534988c-0.288099,0.266602-0.851589,0.142601-1.233398-0.279305
		c-0.3955-0.420898-0.4687-0.984398-0.176802-1.254898c0.2969-0.266602,0.8428-0.141602,1.2383,0.279305
		C29.154301,93.705887,29.231501,94.264488,28.9307,94.534988L28.9307,94.534988z M28.354502,93.916786"/>
	<path class="st1" d="M31.311602,98.012489c-0.370201,0.257797-0.975601,0.016602-1.3496-0.5205
		c-0.370201-0.537102-0.370201-1.181602,0.008699-1.4394c0.3741-0.257805,0.970699-0.025398,1.349699,0.506798
		C31.689501,97.105286,31.689501,97.749786,31.311602,98.012489L31.311602,98.012489z M31.311602,98.012489"/>
	<path class="st1" d="M34.573299,101.372887c-0.3311,0.365204-1.03619,0.266602-1.5518-0.231499
		c-0.528297-0.486298-0.674797-1.177704-0.3437-1.5429c0.335903-0.365303,1.044903-0.262703,1.5644,0.2314
		C34.766602,100.316185,34.9258,101.01149,34.573299,101.372887L34.573299,101.372887z M34.573299,101.372887"/>
	<path class="st1" d="M39.073299,103.32399c-0.1465,0.472694-0.825188,0.6875-1.508801,0.486397
		c-0.683598-0.2071-1.129898-0.760796-0.992199-1.238297c0.141602-0.476601,0.8242-0.700203,1.512699-0.485405
		C38.767601,102.292786,39.214901,102.84259,39.073299,103.32399L39.073299,103.32399z M39.073299,103.32399"/>
	<path class="st1" d="M44.015701,103.685387c0.016598,0.498001-0.563499,0.911102-1.2813,0.919899
		c-0.721703,0.016602-1.306602-0.386696-1.3144-0.876999c0-0.502899,0.567299-0.911102,1.288998-0.923798
		C43.4268,102.790787,44.015701,103.191185,44.015701,103.685387L44.015701,103.685387z M44.015701,103.685387"/>
	<path class="st1" d="M48.6143,102.903084c0.085899,0.485405-0.413101,0.984406-1.125999,1.117203
		c-0.701191,0.128899-1.349602-0.171799-1.4394-0.653297c-0.086899-0.498001,0.420898-0.997101,1.121101-1.125999
		C47.883801,102.116989,48.523499,102.408989,48.6143,102.903084L48.6143,102.903084z M48.6143,102.903084"/>
</g>
</svg>
